<svg id="Layer_1" data-name="Layer 1" xmlns="http://www.w3.org/2000/svg" viewBox="0 0 81.88 83.41"><defs><style>.cls-1,.cls-2{fill:#035ba8;}.cls-1{fill-rule:evenodd;}</style></defs><title>hybrid</title><g id="hybrid"><path id="Path_241" data-name="Path 241" class="cls-1" d="M75.28,51.89a.87.87,0,0,0,1-.72.66.66,0,0,0,0-.28V40.76a6.07,6.07,0,0,0-4.67-5.63v2.06a3.85,3.85,0,0,1,2.71,3.62v9.13c-9.69,1.1-9.24,14.82,0,15.19V77.41c.09,2.36-2.34,4-4.65,4h-63c-2.86,0-4.49-2.18-4.66-4.82V65c9.34-.58,8.82-14.58,0-15.06V40.81c.09-2.2,1.67-3.87,4.69-4H42.1v-2H6.59C2.79,35,.13,37.51,0,40.73V50.9a.92.92,0,0,0,.83,1h.23c8-.8,7,12.19.11,11-.8-.08-1.2.36-1.17,1V76.41a6.58,6.58,0,0,0,6.13,7l.48,0h63c3.69,0,6.65-2.28,6.62-5.9V64.15a.93.93,0,0,0-.87-1h-.13C66.71,63.15,68,51.88,75.28,51.89Z"/><path id="Path_242" data-name="Path 242" class="cls-1" d="M15.44,38.85v4.48a1,1,0,1,0,2,0V38.85C17.39,37.69,15.45,37.72,15.44,38.85Z"/><path id="Path_243" data-name="Path 243" class="cls-1" d="M15.44,50.41v4.47a1,1,0,1,0,2,0V50.41a1,1,0,1,0-2,0Z"/><path id="Path_244" data-name="Path 244" class="cls-1" d="M15.44,62.21v4.48a1,1,0,1,0,2,0V62.21C17.39,61.05,15.45,61.08,15.44,62.21Z"/><path id="Path_245" data-name="Path 245" class="cls-1" d="M16.41,73.64a1,1,0,0,0-1,1v4.48a1,1,0,0,0,2,0V74.65a1,1,0,0,0-1-1Z"/><path id="Path_246" data-name="Path 246" class="cls-1" d="M26.21,48.22a1,1,0,0,0,0,2H60a1,1,0,1,0,0-2Z"/><path id="Path_247" data-name="Path 247" class="cls-1" d="M26.21,57.16a1,1,0,0,0,0,2H60a1,1,0,1,0,0-2Z"/><path id="Path_248" data-name="Path 248" class="cls-1" d="M26.21,66.11c-1.32,0-1.1,2,0,2H60a1,1,0,0,0,0-2Z"/><path id="Path_249" data-name="Path 249" class="cls-2" d="M71.52,23.73l-2,.4A6.54,6.54,0,0,0,68.87,23l1.31-1.75a.75.75,0,0,0,0-.88,16.37,16.37,0,0,0-3-3.11.72.72,0,0,0-.9,0l-1.62,1.25a4.87,4.87,0,0,0-1.14-.63l.31-2.08A.72.72,0,0,0,63.4,15a16.54,16.54,0,0,0-4.21-1.16.73.73,0,0,0-.79.47l-.68,1.89a5.83,5.83,0,0,0-1.32,0l-.8-1.94a.71.71,0,0,0-.76-.45,16.74,16.74,0,0,0-4.23,1.07.73.73,0,0,0-.45.81l.36,2.07a5.28,5.28,0,0,0-1.21.66l-1.6-1.38a.74.74,0,0,0-.91,0,16.09,16.09,0,0,0-3.12,3.05.74.74,0,0,0,0,.91L45,22.69a5.42,5.42,0,0,0-.67,1.14l-2.13-.4a.73.73,0,0,0-.8.43,17.35,17.35,0,0,0-1.17,4.2.78.78,0,0,0,.49.8l2,.7a7.72,7.72,0,0,0,0,1.36l-2,.73a.73.73,0,0,0-.48.78,16.77,16.77,0,0,0,1.07,4.22.75.75,0,0,0,.83.44l2-.44a6.89,6.89,0,0,0,.67,1.18l-1.33,1.69a.72.72,0,0,0,0,.88,17,17,0,0,0,3,3.12.71.71,0,0,0,.93,0L49,42.13a5,5,0,0,0,1.18.7L49.83,45a.77.77,0,0,0,.44.79A17.58,17.58,0,0,0,54.47,47a.74.74,0,0,0,.79-.48l.72-2a8,8,0,0,0,1.38,0l.69,2a.74.74,0,0,0,.78.5,20.65,20.65,0,0,0,2.24-.45,15.51,15.51,0,0,0,2-.64.73.73,0,0,0,.45-.76l-.31-2a5.69,5.69,0,0,0,1.26-.69l1.47,1.33a.72.72,0,0,0,.92,0,16.43,16.43,0,0,0,3.12-3,.7.7,0,0,0,0-.92l-1.3-1.56A7.54,7.54,0,0,0,69.42,37l2,.37a.73.73,0,0,0,.81-.43,16.29,16.29,0,0,0,1.16-4.2A.7.7,0,0,0,73,32L71,31.16A4,4,0,0,0,71,30l2-.8a.73.73,0,0,0,.45-.76,16.63,16.63,0,0,0-1.07-4.23A.72.72,0,0,0,71.52,23.73Zm.36,4.3-2,.8a.74.74,0,0,0-.44.84,3.25,3.25,0,0,1,0,1.75.75.75,0,0,0,.42.85l1.94.83A15,15,0,0,1,71,35.85l-2-.38a.72.72,0,0,0-.83.5,5.32,5.32,0,0,1-1.08,1.81.74.74,0,0,0,0,.93l1.3,1.55a15.75,15.75,0,0,1-2,2L65,40.93a.72.72,0,0,0-1,0,4.53,4.53,0,0,1-1.84,1,.72.72,0,0,0-.5.81l.31,2.06a15.82,15.82,0,0,1-2.73.69l-.69-2a.72.72,0,0,0-.79-.48,7.11,7.11,0,0,1-2.16,0,.74.74,0,0,0-.8.48l-.71,2a16.27,16.27,0,0,1-2.73-.76l.34-2.18a.71.71,0,0,0-.49-.8,4.45,4.45,0,0,1-1.74-1,.72.72,0,0,0-1,0l-1.55,1.4a17.17,17.17,0,0,1-2-2l1.37-1.73a.7.7,0,0,0,0-.92,5.41,5.41,0,0,1-1-1.82.73.73,0,0,0-.84-.45l-2,.45a15.81,15.81,0,0,1-.68-2.71l2-.74a.73.73,0,0,0,.48-.81,5.65,5.65,0,0,1,0-2.09.72.72,0,0,0-.48-.81l-2-.7a16.61,16.61,0,0,1,.75-2.7l2.13.4a.73.73,0,0,0,.81-.46,4.84,4.84,0,0,1,1-1.75.73.73,0,0,0,0-.94l-1.22-1.8a15.75,15.75,0,0,1,2-2l1.6,1.38a.72.72,0,0,0,1,0,4.76,4.76,0,0,1,1.83-1,.73.73,0,0,0,.47-.82L51.72,16a16.63,16.63,0,0,1,2.76-.69l.8,1.93a.75.75,0,0,0,.78.44,5.6,5.6,0,0,1,2,0,.72.72,0,0,0,.79-.47l.67-1.79a14.16,14.16,0,0,1,2.73.76l-.31,2.09a.75.75,0,0,0,.48.79,4.46,4.46,0,0,1,1.74,1,.75.75,0,0,0,.92,0l1.56-1.25a14.54,14.54,0,0,1,2,2l-1.29,1.74a.72.72,0,0,0,0,.86,6.18,6.18,0,0,1,1,1.79.74.74,0,0,0,.83.47l2-.4A14.58,14.58,0,0,1,71.87,28Z"/><path id="Path_250" data-name="Path 250" class="cls-2" d="M54.68,22.08a8.59,8.59,0,1,0,10.46,6.18h0a8.57,8.57,0,0,0-10.45-6.18ZM58.6,37.31a7.14,7.14,0,1,1,5.13-8.7h0A7.14,7.14,0,0,1,58.6,37.31Z"/><path id="Path_251" data-name="Path 251" class="cls-2" d="M55.44,25.06a5.51,5.51,0,1,0,6.72,4h0a5.52,5.52,0,0,0-6.7-4Zm2.39,9.27a4.06,4.06,0,1,1,2.92-4.95h0A4.06,4.06,0,0,1,57.83,34.33Z"/><path id="Path_252" data-name="Path 252" class="cls-2" d="M81.28,5.59a.71.71,0,0,0-.76-.45l-.77.16a.77.77,0,0,0-.1-.18l.53-.71a.71.71,0,0,0,0-.87,8.31,8.31,0,0,0-1.66-1.69.7.7,0,0,0-.9,0L77,2.34l-.19-.11.12-.81a.71.71,0,0,0-.42-.77A8.44,8.44,0,0,0,74.26,0a.72.72,0,0,0-.84.5l-.27.73h-.21L72.61.48A.72.72,0,0,0,71.85,0a8.22,8.22,0,0,0-2.28.58.72.72,0,0,0-.45.8l.15.82-.2.11-.63-.54a.71.71,0,0,0-.91,0,8.75,8.75,0,0,0-1.69,1.64.74.74,0,0,0,0,.91l.54.66-.11.18L65.43,5a.73.73,0,0,0-.8.43A9.33,9.33,0,0,0,64,7.74a.75.75,0,0,0,.48.79l.79.27V9l-.81.29a.73.73,0,0,0-.48.78,10.64,10.64,0,0,0,.54,2.21.74.74,0,0,0,.83.43l.78-.17.11.19-.55.7a.74.74,0,0,0,0,.89A9,9,0,0,0,67.33,16a.75.75,0,0,0,.94,0l.59-.53.19.12-.13.86a.75.75,0,0,0,.43.79,10,10,0,0,0,2.26.62.72.72,0,0,0,.79-.47l.29-.8h.22l.28.81a.75.75,0,0,0,.78.49,11.76,11.76,0,0,0,1.21-.23,7.31,7.31,0,0,0,1.06-.35.72.72,0,0,0,.48-.81l-.12-.8a1.71,1.71,0,0,0,.23-.13l.56.51a.74.74,0,0,0,.93,0A9.34,9.34,0,0,0,80,14.52a.72.72,0,0,0,0-.92l-.5-.6a2.39,2.39,0,0,0,.13-.21l.79.14a.72.72,0,0,0,.8-.43,8.6,8.6,0,0,0,.62-2.27.72.72,0,0,0-.43-.77l-.77-.33a.48.48,0,0,0,0-.17l.78-.31a.74.74,0,0,0,.45-.77A8.58,8.58,0,0,0,81.28,5.59Zm-1,1.9-.77.31a.73.73,0,0,0-.43.84,1.37,1.37,0,0,1,0,.75.76.76,0,0,0,.42.85l.74.31a5,5,0,0,1-.22.82l-.74-.15a.74.74,0,0,0-.84.51,2.51,2.51,0,0,1-.49.81.71.71,0,0,0,0,.93l.47.58a7.3,7.3,0,0,1-.56.55l-.53-.49a.74.74,0,0,0-1,0,2.08,2.08,0,0,1-.82.46.73.73,0,0,0-.51.8l.12.78c-.26.08-.52.14-.79.2l-.26-.77a.71.71,0,0,0-.79-.48,4.18,4.18,0,0,1-1,0,.71.71,0,0,0-.76.42l-.27.75c-.26-.06-.53-.13-.79-.21l.13-.84a.7.7,0,0,0-.49-.81,1.9,1.9,0,0,1-.78-.47.72.72,0,0,0-1,0l-.57.52c-.2-.19-.39-.39-.57-.59l.53-.67a.7.7,0,0,0,0-.92,2.59,2.59,0,0,1-.47-.84A.71.71,0,0,0,66.4,11l-.73.16c-.07-.25-.14-.5-.19-.76l.78-.28a.73.73,0,0,0,.48-.81,2.41,2.41,0,0,1,0-1,.73.73,0,0,0-.48-.82l-.74-.26c.06-.26.13-.52.21-.77l.81.15a.73.73,0,0,0,.81-.46,2.36,2.36,0,0,1,.46-.8.73.73,0,0,0,0-.94l-.52-.63a7.6,7.6,0,0,1,.58-.56l.61.52a.74.74,0,0,0,1,0,2.17,2.17,0,0,1,.84-.46.71.71,0,0,0,.49-.75l-.14-.78a6.64,6.64,0,0,1,.85-.22l.31.74a.75.75,0,0,0,.78.44,2.41,2.41,0,0,1,1,0,.74.74,0,0,0,.8-.47l.25-.69a5.57,5.57,0,0,1,.8.22l-.12.8a.75.75,0,0,0,.48.79,1.87,1.87,0,0,1,.8.45.72.72,0,0,0,.92,0l.57-.46c.21.2.41.4.6.62l-.51.68a.72.72,0,0,0,0,.86,2.49,2.49,0,0,1,.47.84.76.76,0,0,0,.83.47l.72-.15a6.13,6.13,0,0,1,.11.86Z"/><path id="Path_253" data-name="Path 253" class="cls-2" d="M72,5.22A3.84,3.84,0,1,0,76.64,8h0A3.83,3.83,0,0,0,72,5.22Zm1.55,6a2.38,2.38,0,1,1,1.71-2.9h0a2.38,2.38,0,0,1-1.67,2.92h0Z"/></g></svg>