<svg id="Layer_1" data-name="Layer 1" xmlns="http://www.w3.org/2000/svg" viewBox="0 0 81.09 86.68"><defs><style>.cls-1{fill:#035ba8;}</style></defs><title>noun_smart transportation_-1</title><g id="noun_smart_transportation_2922027" data-name="noun smart transportation 2922027"><g id="_4" data-name=" 4"><path id="Path_198" data-name="Path 198" class="cls-1" d="M45,19.57H13.7a5.32,5.32,0,0,0-5.31,5.32V50.61a5.32,5.32,0,0,0,5.31,5.32H45a5.32,5.32,0,0,0,5.31-5.32V24.89A5.32,5.32,0,0,0,45,19.57ZM13.7,22.37H45a2.52,2.52,0,0,1,2.52,2.52v.28H11.19v-.28A2.52,2.52,0,0,1,13.7,22.37ZM45,53.13H13.7a2.51,2.51,0,0,1-2.51-2.52V28H47.54V50.61A2.52,2.52,0,0,1,45,53.13Z"/><path id="Path_199" data-name="Path 199" class="cls-1" d="M43.34,58.72a4.2,4.2,0,1,0,4.2,4.2,4.2,4.2,0,0,0-4.2-4.2Zm0,5.6a1.4,1.4,0,1,1,1.4-1.4h0A1.4,1.4,0,0,1,43.34,64.32Z"/><path id="Path_200" data-name="Path 200" class="cls-1" d="M15.38,58.72a4.2,4.2,0,1,0,4.19,4.2,4.19,4.19,0,0,0-4.19-4.2Zm0,5.6a1.4,1.4,0,1,1,1.4-1.4h0A1.4,1.4,0,0,1,15.38,64.32Z"/><path id="Path_201" data-name="Path 201" class="cls-1" d="M57.33,11.18a1.41,1.41,0,0,0,0,2.81,9.78,9.78,0,0,1,9.78,9.78h0a1.4,1.4,0,1,0,2.8,0A12.59,12.59,0,0,0,57.33,11.18Z"/><path id="Path_202" data-name="Path 202" class="cls-1" d="M57.33,5.59a1.4,1.4,0,1,0,0,2.8A15.42,15.42,0,0,1,72.71,23.77a1.4,1.4,0,0,0,2.8,0h0A18.21,18.21,0,0,0,57.33,5.59Z"/><path id="Path_203" data-name="Path 203" class="cls-1" d="M57.33,0a1.4,1.4,0,1,0,0,2.8,21,21,0,0,1,21,21,1.4,1.4,0,1,0,2.8,0A23.81,23.81,0,0,0,57.33,0Z"/><path id="Path_204" data-name="Path 204" class="cls-1" d="M60.12,19.57a1.4,1.4,0,0,0-1.4,1.4h0v1.4h-2.8v-.25A8.14,8.14,0,0,0,47.79,14H10.93A8.14,8.14,0,0,0,2.8,22.12V69.91H1.4A1.4,1.4,0,0,0,0,71.31V76.9a1.4,1.4,0,0,0,1.4,1.4H5.59v2.8a5.6,5.6,0,0,0,11.19,0V78.3H41.94v2.8a5.6,5.6,0,0,0,11.19,0V78.3h4.19a1.4,1.4,0,0,0,1.4-1.4h0V71.3a1.4,1.4,0,0,0-1.4-1.4h-1.4V25.17h4.2a1.4,1.4,0,0,0,1.4-1.4V21A1.4,1.4,0,0,0,60.12,19.57ZM14,81.09a2.8,2.8,0,0,1-5.59,0v-2.8H14Zm36.35,0a2.8,2.8,0,0,1-5.59,0v-2.8h5.59Zm5.6-5.59H2.8V72.7H55.93ZM5.59,69.91V22.12a5.35,5.35,0,0,1,5.34-5.34H47.79a5.34,5.34,0,0,1,5.34,5.34h0V69.91Z"/></g></g></svg>