<svg id="Layer_1" data-name="Layer 1" xmlns="http://www.w3.org/2000/svg" viewBox="0 0 93 90"><defs><style>.cls-1{fill:#035ba8;}</style></defs><title>noun_Smart City_3085652</title><g id="noun_Smart_City_3085652" data-name="noun Smart City 3085652"><g id="Group_16" data-name="Group 16"><path id="Path_205" data-name="Path 205" class="cls-1" d="M63.19,8.39a19.17,19.17,0,0,1,26.64,0,1.5,1.5,0,1,0,2.08-2.16,22.16,22.16,0,0,0-30.8,0,1.5,1.5,0,0,0,2,2.22Z"/><path id="Path_206" data-name="Path 206" class="cls-1" d="M86.43,13.87a1.5,1.5,0,0,0,1.07-2.55,15.48,15.48,0,0,0-21.89-.09l-.09.09a1.5,1.5,0,0,0,2.13,2.11,12.46,12.46,0,0,1,17.62-.1l.1.1A1.5,1.5,0,0,0,86.43,13.87Z"/><path id="Path_207" data-name="Path 207" class="cls-1" d="M83.07,16.49a8.67,8.67,0,0,0-12.23-.89,8.31,8.31,0,0,0-.89.89,1.5,1.5,0,0,0,.15,2.12h0a1.49,1.49,0,0,0,2.1-.14h0a5.68,5.68,0,0,1,8-.59,5.48,5.48,0,0,1,.59.59,1.5,1.5,0,1,0,2.33-1.89Z"/><path id="Path_208" data-name="Path 208" class="cls-1" d="M76.51,21.76a5.81,5.81,0,1,0,5.81,5.81h0A5.82,5.82,0,0,0,76.51,21.76Zm0,8.62a2.81,2.81,0,1,1,2.81-2.81h0A2.81,2.81,0,0,1,76.51,30.38Z"/><path id="Path_209" data-name="Path 209" class="cls-1" d="M18.11,78.12H13.59a1.5,1.5,0,0,0,0,3h4.52a1.5,1.5,0,0,0,0-3Z"/><path id="Path_210" data-name="Path 210" class="cls-1" d="M18.11,68.12H13.59a1.5,1.5,0,0,0,0,3h4.52a1.5,1.5,0,0,0,0-3Z"/><path id="Path_211" data-name="Path 211" class="cls-1" d="M18.11,58.12H13.59a1.5,1.5,0,1,0,0,3h4.52a1.5,1.5,0,0,0,0-3Z"/><path id="Path_212" data-name="Path 212" class="cls-1" d="M18.11,48.12H13.59a1.5,1.5,0,1,0,0,3h4.52a1.5,1.5,0,0,0,0-3Z"/><path id="Path_213" data-name="Path 213" class="cls-1" d="M18.11,38.12H13.59a1.5,1.5,0,1,0,0,3h4.52a1.5,1.5,0,0,0,0-3Z"/><path id="Path_214" data-name="Path 214" class="cls-1" d="M48.19,78.12H29.44a1.5,1.5,0,1,0,0,3H48.2a1.5,1.5,0,1,0,0-3Z"/><path id="Path_215" data-name="Path 215" class="cls-1" d="M48.19,68.12H29.44a1.5,1.5,0,1,0,0,3H48.2a1.5,1.5,0,1,0,0-3Z"/><path id="Path_216" data-name="Path 216" class="cls-1" d="M48.19,58.12H29.44a1.5,1.5,0,0,0,0,3H48.2a1.5,1.5,0,1,0,0-3Z"/><path id="Path_217" data-name="Path 217" class="cls-1" d="M48.19,48.12H29.44a1.5,1.5,0,0,0,0,3H48.2a1.5,1.5,0,1,0,0-3Z"/><path id="Path_218" data-name="Path 218" class="cls-1" d="M79.51,78.12H59.42a1.5,1.5,0,0,0,0,3H79.5a1.5,1.5,0,1,0,0-3Z"/><path id="Path_219" data-name="Path 219" class="cls-1" d="M79.51,68.12H59.42a1.5,1.5,0,0,0,0,3H79.5a1.5,1.5,0,1,0,0-3Z"/><path id="Path_220" data-name="Path 220" class="cls-1" d="M79.51,58.12H59.42a1.5,1.5,0,0,0,0,3H79.5a1.5,1.5,0,1,0,0-3Z"/><path id="Path_221" data-name="Path 221" class="cls-1" d="M79.51,48.12H59.42a1.5,1.5,0,0,0,0,3H79.5a1.5,1.5,0,1,0,0-3Z"/><path id="Path_222" data-name="Path 222" class="cls-1" d="M48.19,18.12H29.44a1.5,1.5,0,0,0,0,3H48.2a1.5,1.5,0,1,0,0-3Z"/><path id="Path_223" data-name="Path 223" class="cls-1" d="M48.19,28.12H29.44a1.5,1.5,0,0,0,0,3H48.2a1.5,1.5,0,1,0,0-3Z"/><path id="Path_224" data-name="Path 224" class="cls-1" d="M48.19,38.12H29.44a1.5,1.5,0,0,0,0,3H48.2a1.5,1.5,0,1,0,0-3Z"/><path id="Path_225" data-name="Path 225" class="cls-1" d="M91.5,87H86.6V40.12H55.33V7.91h-33V30.52H6.4V87H1.5a1.5,1.5,0,0,0,0,3h90a1.5,1.5,0,0,0,0-3ZM9.4,87V33.52H22.3V87Zm15.9,0V10.91h27V87Zm30,0V43.12H83.6V87Z"/></g></g></svg>