<svg id="Layer_1" data-name="Layer 1" xmlns="http://www.w3.org/2000/svg" viewBox="0 0 64.89 104.06"><defs><style>.cls-1,.cls-2{fill:#035ba8;}.cls-2{stroke:#fff;stroke-linecap:round;stroke-linejoin:round;}</style></defs><title>Group41</title><g id="Group_41" data-name="Group 41"><g id="noun_E-ticket_1183744" data-name="noun E-ticket 1183744"><g id="Group_17" data-name="Group 17"><path id="Path_226" data-name="Path 226" class="cls-1" d="M30.82,18.48a2.67,2.67,0,0,0-2.44,2.69,2,2,0,0,0,2,2.07,1.22,1.22,0,0,0,.33,0,10.18,10.18,0,0,1,11,9.29,11.09,11.09,0,0,1,0,1.73,2,2,0,0,0,1.84,2.18h.33A2.87,2.87,0,0,0,46.57,34a15,15,0,0,0-4.22-11.53A15.43,15.43,0,0,0,30.82,18.48Z"/><path id="Path_227" data-name="Path 227" class="cls-1" d="M30.69,9.26A2.57,2.57,0,0,0,28.25,12h0a2,2,0,0,0,2,2.07l.33,0A18.32,18.32,0,0,1,50.8,34.24a2.1,2.1,0,0,0,1.88,2.29h.17a2.76,2.76,0,0,0,2.69-2.43A22.72,22.72,0,0,0,49,15.79,23.14,23.14,0,0,0,30.69,9.26Z"/><path id="Path_228" data-name="Path 228" class="cls-1" d="M55.93,8.87A31.16,31.16,0,0,0,30.56.16a2.76,2.76,0,0,0-2.43,2.69h0a2.05,2.05,0,0,0,2.05,2.08,2.34,2.34,0,0,0,.38,0A26.47,26.47,0,0,1,60,34.24a2.13,2.13,0,0,0,1.8,2.41l.25,0h0a2.75,2.75,0,0,0,2.69-2.43C65.53,24.89,62.72,15.66,55.93,8.87Z"/></g><g id="Group_19" data-name="Group 19"><g id="Group_18" data-name="Group 18"><path id="Path_229" data-name="Path 229" class="cls-1" d="M37.61,32.32a5.15,5.15,0,0,0-5.13-5.13H5.12A5.14,5.14,0,0,0,0,32.32L.13,98.93a5.13,5.13,0,0,0,5.12,5.12H32.61a5.12,5.12,0,0,0,5.12-5.12Zm-1.8,61.1a2.29,2.29,0,0,1-2.29,2.31H4.23a2.3,2.3,0,0,1-2.31-2.3h0V37.82a2.29,2.29,0,0,1,2.29-2.3h29.3a2.29,2.29,0,0,1,2.3,2.29h0Z"/></g></g></g><g id="Group_38" data-name="Group 38"><g id="Group_37" data-name="Group 37"><path id="Path_236" data-name="Path 236" class="cls-1" d="M5.74,63.94a.16.16,0,0,1-.17-.15v-7a.17.17,0,0,1,.15-.17h2a.16.16,0,0,1,.17.15v7a.16.16,0,0,1-.15.17h-2Z"/><path id="Path_237" data-name="Path 237" class="cls-1" d="M7.74,56.47h-2a.32.32,0,0,0-.34.3v7a.32.32,0,0,0,.3.34h2a.32.32,0,0,0,.34-.3v-7A.37.37,0,0,0,7.74,56.47Zm-2,.34h2v7H5.75Z"/></g><line id="Line_2" data-name="Line 2" class="cls-2" x1="6.74" y1="67.54" x2="6.74" y2="63.77"/><line id="Line_3" data-name="Line 3" class="cls-2" x1="8.97" y1="67.55" x2="6.74" y2="67.55"/></g><g id="Group_40" data-name="Group 40"><g id="Group_39" data-name="Group 39"><path id="Path_238" data-name="Path 238" class="cls-1" d="M29.34,63.94a.15.15,0,0,1-.17-.15v-7a.15.15,0,0,1,.15-.17h2a.15.15,0,0,1,.17.15v7a.16.16,0,0,1-.15.17h-2Z"/><path id="Path_239" data-name="Path 239" class="cls-1" d="M31.3,56.47h-2a.32.32,0,0,0-.34.3v7a.32.32,0,0,0,.3.34h2a.32.32,0,0,0,.34-.3v-7A.35.35,0,0,0,31.3,56.47Zm-2,.34h2v7h-2Z"/></g><line id="Line_4" data-name="Line 4" class="cls-2" x1="30.33" y1="63.77" x2="30.33" y2="67.54"/><line id="Line_5" data-name="Line 5" class="cls-2" x1="30.33" y1="67.55" x2="28.1" y2="67.55"/></g><path id="Path_240" data-name="Path 240" class="cls-1" d="M25.29,54H11.81a3,3,0,0,0-3,3V75.09a3,3,0,0,0,1.51,2.57v3.43a.15.15,0,0,0,.15.17h3.18a.16.16,0,0,0,.17-.15v-3h9.43v3a.15.15,0,0,0,.15.17h3.17a.15.15,0,0,0,.17-.15V77.66a2.94,2.94,0,0,0,1.51-2.57V57A3,3,0,0,0,25.29,54Zm1.82,21.33H22.17V72.9h4.94ZM10,75.33V72.9H14.9v2.44Zm3.95-20.64h9.32v1.64H13.91ZM27.11,57V67.93a7.3,7.3,0,0,1-1.48,2,6.93,6.93,0,0,1-2.91,1.07,30.86,30.86,0,0,1-4.19.2,30.72,30.72,0,0,1-4.18-.2A7.17,7.17,0,0,1,11.43,70a7.85,7.85,0,0,1-1.47-2V57Z"/></g></svg>